<mxfile modified="2022-05-04T23:40:02.548Z" host="app.diagrams.net" agent="5.0 (Windows NT 10.0; Win64; x64) AppleWebKit/537.36 (KHTML, like Gecko) Chrome/100.0.4896.127 Safari/537.36 Edg/100.0.1185.50" etag="DJVMMkAe5Toi_ugX0kh4" compressed="false" version="17.5.0" type="google">
  <diagram name="Deployment/Containers/Portability Myth/2" id="kr22QZDm-8jhve08xe6N">
    <mxGraphModel grid="1" page="1" gridSize="10" guides="1" tooltips="1" connect="1" arrows="1" fold="1" pageScale="1" pageWidth="827" pageHeight="1169" math="0" shadow="0">
      <root>
        <mxCell id="IRdfGQYxKvlxq_RgmSUb-0" />
        <mxCell id="IRdfGQYxKvlxq_RgmSUb-1" parent="IRdfGQYxKvlxq_RgmSUb-0" />
        <mxCell id="IRdfGQYxKvlxq_RgmSUb-39" value="&lt;div&gt;Trivial&lt;br&gt;Information&lt;/div&gt;&lt;div&gt;System&lt;/div&gt;" style="rounded=0;whiteSpace=wrap;html=1;dashed=1;verticalAlign=top;align=left;fillColor=none;" vertex="1" parent="IRdfGQYxKvlxq_RgmSUb-1">
          <mxGeometry x="160" y="350" width="440" height="110" as="geometry" />
        </mxCell>
        <mxCell id="IRdfGQYxKvlxq_RgmSUb-20" value="" style="aspect=fixed;pointerEvents=1;shadow=0;dashed=0;html=1;labelPosition=center;verticalLabelPosition=bottom;verticalAlign=top;align=center;fillColor=#dae8fc;shape=mxgraph.mscae.enterprise.internet_hollow;strokeColor=none;container=1;collapsible=0;recursiveResize=0;resizeWidth=1;resizeHeight=1;" vertex="1" parent="IRdfGQYxKvlxq_RgmSUb-1">
          <mxGeometry x="120" y="260" width="280" height="175.96" as="geometry" />
        </mxCell>
        <mxCell id="IRdfGQYxKvlxq_RgmSUb-21" value="Cloud Specific&lt;br&gt;Services" style="rounded=0;whiteSpace=wrap;html=1;" vertex="1" parent="IRdfGQYxKvlxq_RgmSUb-20">
          <mxGeometry x="50" y="150" width="60" height="40" as="geometry" />
        </mxCell>
        <mxCell id="IRdfGQYxKvlxq_RgmSUb-22" value="Database Service" style="rounded=0;whiteSpace=wrap;html=1;" vertex="1" parent="IRdfGQYxKvlxq_RgmSUb-20">
          <mxGeometry x="150" y="150" width="60" height="40" as="geometry" />
        </mxCell>
        <mxCell id="IRdfGQYxKvlxq_RgmSUb-23" value="WAF Service" style="rounded=0;whiteSpace=wrap;html=1;" vertex="1" parent="IRdfGQYxKvlxq_RgmSUb-20">
          <mxGeometry x="100" width="60" height="40" as="geometry" />
        </mxCell>
        <mxCell id="IRdfGQYxKvlxq_RgmSUb-24" style="edgeStyle=none;rounded=0;orthogonalLoop=1;jettySize=auto;html=1;entryX=0.5;entryY=1;entryDx=0;entryDy=0;endArrow=none;endFill=0;" edge="1" parent="IRdfGQYxKvlxq_RgmSUb-20" source="IRdfGQYxKvlxq_RgmSUb-26" target="IRdfGQYxKvlxq_RgmSUb-23">
          <mxGeometry relative="1" as="geometry" />
        </mxCell>
        <mxCell id="IRdfGQYxKvlxq_RgmSUb-25" style="edgeStyle=none;rounded=0;orthogonalLoop=1;jettySize=auto;html=1;entryX=0.5;entryY=0;entryDx=0;entryDy=0;endArrow=none;endFill=0;fillColor=#f8cecc;strokeWidth=5;strokeColor=#FF9933;" edge="1" parent="IRdfGQYxKvlxq_RgmSUb-20" target="IRdfGQYxKvlxq_RgmSUb-35">
          <mxGeometry relative="1" as="geometry">
            <mxPoint x="140" y="80" as="sourcePoint" />
          </mxGeometry>
        </mxCell>
        <mxCell id="IRdfGQYxKvlxq_RgmSUb-26" value="API Gateway Service" style="rounded=0;whiteSpace=wrap;html=1;" vertex="1" parent="IRdfGQYxKvlxq_RgmSUb-20">
          <mxGeometry x="100" y="50" width="60" height="40" as="geometry" />
        </mxCell>
        <mxCell id="IRdfGQYxKvlxq_RgmSUb-27" style="edgeStyle=none;rounded=0;orthogonalLoop=1;jettySize=auto;html=1;entryX=0.5;entryY=1;entryDx=0;entryDy=0;endArrow=none;endFill=0;strokeColor=#FF8000;strokeWidth=2;" edge="1" parent="IRdfGQYxKvlxq_RgmSUb-1" source="IRdfGQYxKvlxq_RgmSUb-35" target="IRdfGQYxKvlxq_RgmSUb-28">
          <mxGeometry relative="1" as="geometry">
            <Array as="points">
              <mxPoint x="400" y="380" />
            </Array>
          </mxGeometry>
        </mxCell>
        <mxCell id="IRdfGQYxKvlxq_RgmSUb-28" value="IdP Service" style="rounded=0;whiteSpace=wrap;html=1;" vertex="1" parent="IRdfGQYxKvlxq_RgmSUb-1">
          <mxGeometry x="370" y="200" width="60" height="40" as="geometry" />
        </mxCell>
        <mxCell id="IRdfGQYxKvlxq_RgmSUb-29" style="edgeStyle=none;rounded=0;orthogonalLoop=1;jettySize=auto;html=1;endArrow=none;endFill=0;strokeColor=#FF8000;strokeWidth=5;" edge="1" parent="IRdfGQYxKvlxq_RgmSUb-1" source="IRdfGQYxKvlxq_RgmSUb-32" target="IRdfGQYxKvlxq_RgmSUb-23">
          <mxGeometry relative="1" as="geometry" />
        </mxCell>
        <mxCell id="IRdfGQYxKvlxq_RgmSUb-30" style="edgeStyle=none;rounded=0;orthogonalLoop=1;jettySize=auto;html=1;entryX=1;entryY=0.5;entryDx=0;entryDy=0;endArrow=none;endFill=0;strokeColor=#FF8000;strokeWidth=2;" edge="1" parent="IRdfGQYxKvlxq_RgmSUb-1" source="IRdfGQYxKvlxq_RgmSUb-32" target="IRdfGQYxKvlxq_RgmSUb-28">
          <mxGeometry relative="1" as="geometry" />
        </mxCell>
        <mxCell id="IRdfGQYxKvlxq_RgmSUb-31" style="edgeStyle=none;rounded=0;orthogonalLoop=1;jettySize=auto;html=1;entryX=0;entryY=0.5;entryDx=0;entryDy=0;endArrow=none;endFill=0;strokeColor=#00CC00;" edge="1" parent="IRdfGQYxKvlxq_RgmSUb-1" source="IRdfGQYxKvlxq_RgmSUb-32" target="IRdfGQYxKvlxq_RgmSUb-33">
          <mxGeometry relative="1" as="geometry" />
        </mxCell>
        <mxCell id="IRdfGQYxKvlxq_RgmSUb-32" value="Service Client" style="rounded=0;whiteSpace=wrap;html=1;" vertex="1" parent="IRdfGQYxKvlxq_RgmSUb-1">
          <mxGeometry x="510" y="200" width="60" height="40" as="geometry" />
        </mxCell>
        <mxCell id="IRdfGQYxKvlxq_RgmSUb-33" value="DNS Service" style="rounded=0;whiteSpace=wrap;html=1;" vertex="1" parent="IRdfGQYxKvlxq_RgmSUb-1">
          <mxGeometry x="590" y="200" width="60" height="40" as="geometry" />
        </mxCell>
        <mxCell id="IRdfGQYxKvlxq_RgmSUb-34" value="" style="aspect=fixed;pointerEvents=1;shadow=0;dashed=0;html=1;labelPosition=center;verticalLabelPosition=bottom;verticalAlign=top;align=center;fillColor=#dae8fc;shape=mxgraph.mscae.enterprise.internet_hollow;strokeColor=none;container=1;collapsible=0;recursiveResize=0;resizeWidth=1;resizeHeight=1;" vertex="1" parent="IRdfGQYxKvlxq_RgmSUb-1">
          <mxGeometry x="400" y="260" width="280" height="175.96" as="geometry" />
        </mxCell>
        <mxCell id="IRdfGQYxKvlxq_RgmSUb-35" value="&lt;p style=&quot;line-height: 90%&quot;&gt;Container&lt;br&gt;based Web Service&lt;/p&gt;" style="rounded=0;whiteSpace=wrap;html=1;" vertex="1" parent="IRdfGQYxKvlxq_RgmSUb-34">
          <mxGeometry x="120" y="100" width="60" height="40" as="geometry" />
        </mxCell>
        <mxCell id="IRdfGQYxKvlxq_RgmSUb-36" style="rounded=0;orthogonalLoop=1;jettySize=auto;html=1;entryX=0.5;entryY=0;entryDx=0;entryDy=0;endArrow=none;endFill=0;fillColor=#f8cecc;strokeWidth=5;strokeColor=#FF9933;" edge="1" parent="IRdfGQYxKvlxq_RgmSUb-1" source="IRdfGQYxKvlxq_RgmSUb-35" target="IRdfGQYxKvlxq_RgmSUb-21">
          <mxGeometry relative="1" as="geometry" />
        </mxCell>
        <mxCell id="IRdfGQYxKvlxq_RgmSUb-37" style="edgeStyle=none;rounded=0;orthogonalLoop=1;jettySize=auto;html=1;entryX=0.5;entryY=0;entryDx=0;entryDy=0;endArrow=none;endFill=0;fillColor=#f8cecc;strokeWidth=5;strokeColor=#FF9933;" edge="1" parent="IRdfGQYxKvlxq_RgmSUb-1" source="IRdfGQYxKvlxq_RgmSUb-35" target="IRdfGQYxKvlxq_RgmSUb-22">
          <mxGeometry relative="1" as="geometry" />
        </mxCell>
        <mxCell id="IRdfGQYxKvlxq_RgmSUb-38" value="&lt;font style=&quot;font-size: 12px&quot;&gt;&lt;i&gt;Cross-Zone&lt;br&gt;Latency&lt;/i&gt;&lt;/font&gt;" style="strokeWidth=1;shadow=0;dashed=0;align=center;html=1;shape=mxgraph.mockup.text.callout;linkText=;textSize=17;textColor=#666666;callDir=SW;callStyle=line;fontSize=17;align=left;verticalAlign=bottom;strokeColor=#b85450;fillColor=#f8cecc;" vertex="1" parent="IRdfGQYxKvlxq_RgmSUb-1">
          <mxGeometry x="330" y="390" width="100" height="120" as="geometry" />
        </mxCell>
        <UserObject label="Although the added latency is not as bad as one could imagine (contacting cache and db services 6 times each would add approximately 48ms latency per request), it remains a poor value idea that increases latency, maintenance cost, opportunity cost, while increasing complexity, while not decreasing risk:&amp;nbsp;" link="https://marckean.com/2019/01/23/latency-between-azure-aws-within-region/" id="IRdfGQYxKvlxq_RgmSUb-40">
          <mxCell style="text;html=1;strokeColor=none;fillColor=none;align=left;verticalAlign=middle;whiteSpace=wrap;rounded=0;dashed=1;movable=1;resizable=1;rotatable=1;deletable=1;editable=1;connectable=1;" vertex="1" parent="IRdfGQYxKvlxq_RgmSUb-1">
            <mxGeometry x="440" y="490" width="240" height="90" as="geometry" />
          </mxCell>
        </UserObject>
        <UserObject label="https://shorturl.at/dhyO0" link="https://shorturl.at/dhyO0" id="IRdfGQYxKvlxq_RgmSUb-41">
          <mxCell style="text;html=1;strokeColor=none;fillColor=none;align=left;verticalAlign=middle;whiteSpace=wrap;rounded=0;dashed=1;" vertex="1" parent="IRdfGQYxKvlxq_RgmSUb-1">
            <mxGeometry x="440" y="590" width="200" height="20" as="geometry" />
          </mxCell>
        </UserObject>
        <mxCell id="IRdfGQYxKvlxq_RgmSUb-43" value="&lt;font style=&quot;font-size: 12px ; font-weight: normal&quot;&gt;&lt;i&gt;Diagram: Base&amp;nbsp;&lt;/i&gt;&lt;span style=&quot;font-style: italic&quot;&gt;System&amp;nbsp;&lt;/span&gt;&lt;i&gt;Logical Module -&amp;nbsp;Deployment - The Portable Container myth - part 2/3&lt;/i&gt;&lt;/font&gt;" style="text;strokeColor=none;fillColor=none;html=1;fontSize=24;fontStyle=1;verticalAlign=middle;align=left;shadow=0;glass=0;comic=0;opacity=30;fontColor=#808080;" vertex="1" parent="IRdfGQYxKvlxq_RgmSUb-1">
          <mxGeometry x="120" y="600" width="520" height="40" as="geometry" />
        </mxCell>
        <UserObject label="Cloud specific services that are not portable include: caching, malware detection, key store services, blob &amp;amp; file services, API gateways, WAFs, AI, geo IP conversion, maps, etc.&lt;br&gt;About the only service that are portable are very mature and simple services. &lt;br&gt;Like web services." id="fFZiyFZNJuO1ug8OEDEQ-0">
          <mxCell style="text;html=1;strokeColor=none;fillColor=none;align=left;verticalAlign=middle;whiteSpace=wrap;rounded=0;dashed=1;movable=1;resizable=1;rotatable=1;deletable=1;editable=1;connectable=1;" vertex="1" parent="IRdfGQYxKvlxq_RgmSUb-1">
            <mxGeometry x="120" y="485" width="200" height="110" as="geometry" />
          </mxCell>
        </UserObject>
      </root>
    </mxGraphModel>
  </diagram>
</mxfile>
